# xmcd
#
# Track frame offsets:
#	150
#	10962
#	33003
#	52025
#	80723
#	101083
#	128638
#	146898
#	158038
#	171173
#	204975
#	228933
#	249425
#	270710
#	282285
#
# Disc length: 4139 seconds
#
# Revision: 0
# Processed by: cddbd v1.4PL0 Copyright (c) Steve Scherf et al.
# Submitted via: EasyCDDAExtractor 4.6.9.1
#
DISCID=cc10290f
DTITLE=Raymond Froggatt - Someday
DYEAR=1995
DGENRE=Country
TTITLE0=Easy come easy go
TTITLE1=Are you only fooling me
TTITLE2=Everybody falls in love
TTITLE3=I did it all with you
TTITLE4=White pearl handle gun
TTITLE5=It's raining
TTITLE6=Someday
TTITLE7=Kelly
TTITLE8=All because of you
TTITLE9=Binding me like a chain
TTITLE10=Dreaming of you
TTITLE11=Fall appart
TTITLE12=French painter
TTITLE13=Someday (radio version)
TTITLE14=Victoria's lullaby
EXTD=
EXTT0=
EXTT1=
EXTT2=
EXTT3=
EXTT4=
EXTT5=
EXTT6=
EXTT7=
EXTT8=
EXTT9=
EXTT10=
EXTT11=
EXTT12=
EXTT13=
EXTT14=
PLAYORDER=
